<?xml version="1.0" standalone="no"?>
<!DOCTYPE svg PUBLIC "-//W3C//DTD SVG 1.1//EN" "http://www.w3.org/Graphics/SVG/1.1/DTD/svg11.dtd">
<svg xmlns="http://www.w3.org/2000/svg">
<metadata>Generated by Fontastic.me</metadata>
<defs>
<font id="cayman" horiz-adv-x="512">
<font-face font-family="cayman" units-per-em="512" ascent="480" descent="-32"/>
<missing-glyph horiz-adv-x="512" />

<glyph unicode="&#97;" d="M232 159c-30 0-61 0-91 0-12 0-19 10-16 21 2 6 7 10 13 10 2 1 4 0 6 0 55 0 109 1 164 0 5 0 8 2 9 7 5 16 10 32 15 47 18 54 36 108 54 162 2 8 8 12 16 12 16 0 32 0 48 0 10 0 17-6 17-16 0-9-7-15-17-15-11 0-21 0-32 0-4 0-6-1-8-5-15-46-30-92-45-139-8-23-15-46-23-70-4-11-8-14-20-14-30 0-60 0-90 0m-27 188c39 0 77 0 116 0 10 0 16-5 17-13 1-9-5-17-14-18-1 0-3 0-5 0-76 0-152 0-229 0-9 0-14 2-17 9-4 12 3 22 15 22 39 0 78 0 117 0m0-52c34 0 67 0 101 0 12 0 19-10 16-21-2-7-7-11-17-11-21 0-43 0-65 0-45 0-90 0-135 0-13 0-20 9-17 21 2 7 7 11 16 11 34 0 67 0 101 0m1-53c22 0 43 0 65 0 7 0 13 0 20 0 8 0 12-4 14-12 1-9-3-16-10-18-2-1-5-1-7-1-55 0-111 0-166 0-13 0-20 9-17 20 2 7 7 11 14 11 18 0 37 0 55 0l32 0 0 0z m-39-138c-10 0-19 9-19 18 0 12 8 21 19 21 11 0 20-9 20-20 0-10-9-19-20-19m134 0c-11 0-19 9-19 19 0 11 9 19 19 20 11 0 20-9 20-20 0-11-9-19-20-19"/>
<glyph unicode="&#98;" d="M434 274c26 2 44 13 50 29-9-5-38-12-54-6-1 4-2 8-2 11-13 45-54 81-98 76 3 2 7 3 11 4 4 2 33 7 28 17-4 8-38-7-45-9 9 3 23 9 25 19-13-2-26-8-36-17 3 4 6 8 7 13-35-22-56-67-73-111-13 13-24 23-34 28-29 16-64 32-119 52-1-18 9-42 40-58-7 1-19-1-29-3 4-21 17-38 52-46-16-1-24-5-32-13 8-14 25-31 57-27-35-16-14-44 15-40-50-50-127-47-171-4 116-158 368-94 405 59 29-1 45 9 55 20-16-2-39 0-52 6z"/>
<glyph unicode="&#99;" d="M195 397c0-11 0-63 0-63l-47 0 0-78 47 0 0-230 95 0 0 230 65 0c0 0 6 37 8 78-8 0-72 0-72 0 0 0 0 45 0 53 0 8 10 19 21 19 10 0 31 0 52 0 0 10 0 47 0 80-27 0-58 0-71 0-100 0-98-77-98-89z"/>
<glyph unicode="&#100;" d="M486 346c0 38-30 69-68 69l-324 0c-38 0-68-31-68-69l0-185c0-38 30-69 68-69l324 0c38 0 68 31 68 69z m-276-171l0 174 132-87z"/>
<glyph unicode="&#101;" d="M426 314c0 23-5 45-14 66-8 20-20 38-36 54-16 15-34 28-54 36-21 9-43 14-66 14-23 0-45-5-66-14-20-8-38-21-54-36-16-16-28-34-36-54-9-21-14-43-14-66 0-23 5-45 14-66 4-12 10-22 17-32l112-171c15-22 39-22 54 0l112 171c7 10 13 20 17 32 9 21 14 43 14 66z m-125-45c-12-12-28-19-45-19-17 0-33 7-45 19-12 12-18 28-18 45 0 17 6 32 18 44 12 12 28 19 45 19 17 0 33-7 45-19 12-12 18-27 18-44 0-17-6-33-18-45z"/>
<glyph unicode="&#102;" d="M457 158c0-5-1-12-3-20-2-9-4-15-6-20-4-10-15-20-35-30-17-10-35-15-53-15-5 0-10 0-15 1-5 1-10 2-16 4-6 1-11 3-14 4-3 1-8 3-16 6-7 3-12 4-14 5-18 7-35 14-50 24-24 15-49 35-75 61-26 26-47 51-62 76-9 14-17 31-23 50-1 1-3 6-6 14-2 7-4 13-5 16-1 3-3 7-5 13-1 6-2 12-3 17-1 4-1 9-1 15 0 17 5 35 14 53 11 19 21 31 31 35 4 2 11 4 19 6 9 1 15 2 20 2 3 0 5 0 6 0 4-2 9-9 16-22 2-4 5-9 8-16 4-6 7-12 10-18 3-5 6-10 9-15 1-1 2-3 5-7 3-4 5-8 6-10 1-3 2-6 2-8 0-4-3-9-8-15-5-5-11-11-18-15-6-5-12-10-17-16-6-5-9-9-9-13 0-1 1-4 2-6 1-3 2-5 2-6 1-1 2-4 4-7 2-3 3-5 4-5 14-26 31-49 49-67 19-19 41-36 67-50 1 0 3-1 6-3 3-2 5-4 7-4 1-1 3-2 6-3 2-1 4-1 6-1 3 0 8 2 13 8 5 5 11 11 15 18 5 6 10 12 16 17 6 6 10 8 14 8 3 0 6 0 8-2 3-1 7-3 11-6 4-2 6-4 7-5 4-3 10-6 15-9 5-3 11-6 18-10 7-3 12-6 16-8 13-7 20-12 21-15 1-2 1-4 1-6z"/>
<glyph unicode="&#103;" d="M41 377c-11 6-16 13-14 20 0 5 5 7 13 7 0 0 433 0 433 0 13 0 16-5 10-16-2-5-6-8-12-11-5-2-38-20-98-52-61-33-92-50-93-51-6-3-14-5-24-5-10 0-17 2-24 5-1 1-32 18-93 51-60 32-93 50-98 52m435-51c7 3 10 1 10-5 0 0 0-189 0-189 0-5-2-11-8-16-6-6-12-8-17-8 0 0-410 0-410 0-5 0-11 2-17 8-5 5-8 11-8 16 0 0 0 189 0 189 0 6 3 8 10 5 0 0 196-103 196-103 7-3 14-5 24-5 10 0 17 2 24 5 0 0 196 103 196 103"/>
<glyph unicode="&#104;" d="M269 93c0 4-1 8-2 12-1 4-1 7-2 10-1 3-3 7-5 10-3 4-5 6-6 9-2 2-5 5-8 8-3 4-6 6-8 8-2 1-5 4-9 7-4 3-7 5-9 6-1 2-5 4-9 7-5 3-8 5-9 6-3 0-8 1-14 1-11 0-21-1-31-2-9-2-20-4-30-8-11-3-20-7-28-13-8-5-15-12-20-21-5-9-8-19-8-31 0-13 4-24 10-34 7-11 16-19 27-24 11-6 22-11 34-13 12-3 24-5 37-5 11 0 22 1 32 4 10 2 19 6 28 11 9 5 16 12 22 21 5 9 8 19 8 31z m-35 247c0 11-1 23-4 36-4 13-8 25-14 37-6 12-14 22-24 30-10 8-21 12-34 12-18 0-31-7-41-20-10-13-15-29-15-47 0-9 1-18 4-28 2-10 5-20 10-30 4-10 10-19 16-27 6-8 13-14 22-19 9-5 18-7 28-7 18 0 32 5 40 17 8 11 12 27 12 46z m-37 135l125 0-39-22-38 0c13-9 24-21 31-36 7-16 11-32 11-48 0-15-2-27-6-38-5-11-10-20-16-26-7-7-13-13-19-19-7-5-12-11-16-17-5-6-7-13-7-20 0-5 2-9 5-14 3-5 7-9 12-14 5-4 11-9 17-14 6-4 12-10 18-15 6-6 12-13 17-19 5-7 9-15 12-25 3-9 5-19 5-30 0-30-13-57-40-81-29-25-69-37-120-37-11 0-23 1-34 3-12 2-23 5-35 9-12 5-22 10-31 17-9 7-16 15-22 25-6 11-9 22-9 35 0 12 4 25 11 39 6 12 15 22 27 31 12 9 26 16 42 21 15 4 30 8 44 10 14 2 28 3 43 4-12 16-18 30-18 42 0 3 0 5 0 7 1 2 1 4 2 6 0 1 1 3 2 6 1 2 1 4 2 6-8-1-14-2-20-2-29 0-53 10-73 28-20 19-31 43-31 71 0 26 9 50 28 71 18 21 40 35 66 41 18 4 36 5 54 5z m297-73l0-36-73 0 0-73-37 0 0 73-73 0 0 36 73 0 0 73 37 0 0-73z"/>
<glyph unicode="&#105;" d="M122 256l-66 0 0 170 172 0 0-143c0-141-70-197-197-199l-14 67c74 7 110 44 105 105m270 0l-66 0 0 170 173 0 0-143c0-141-71-197-197-199l-14 67c73 7 110 44 104 105"/>
<glyph unicode="&#106;" d="M165 92c4 7 8 14 13 20 13 13 14 27 1 41-2 3-8 5-13 6-4 1-9 0-14 0-13 1-21 8-22 21-1 11-1 22 0 32 1 13 9 20 21 21 2 1 4 1 5 1 22 0 28 4 33 26 0 4-2 10-4 14-2 3-5 5-8 8-13 14-13 26 0 40 6 5 11 11 16 16 11 10 23 9 34 0 1-1 2-2 3-3 15-14 25-16 41-3 4 3 7 10 7 15-2 31 11 38 38 36 4 0 7 0 11 0 18-1 26-9 26-27 0-3 0-7 0-10 0-8 3-13 10-16 5-2 9-4 13-5 8-4 14-2 20 4 23 22 29 22 52-1l4-4c17-17 17-27 0-44-12-12-11-31 2-42 3-3 8-4 12-4 5-1 10 0 16-1 11-1 18-7 19-18 2-12 2-24 1-36-1-12-10-19-22-20-3 0-7 0-10 0-12 1-18-4-23-15-7-18-7-18 7-33 15-15 15-26 0-41-5-5-10-10-14-14-12-11-25-11-36 0-1 0-2 1-3 2-14 14-25 15-41 3-3-3-5-8-6-13-1-4 0-9-1-14-1-15-8-23-23-24-10-1-20-1-31 0-12 2-19 10-20 23-1 3-1 6 0 10 1 11-5 18-15 22-19 7-19 7-33-7-15-14-26-14-41 0-6 6-12 11-17 17-3 5-5 10-8 17m218 104c0 37-30 67-67 67-37 0-67-30-67-67 0-36 30-66 67-66 37-1 66 29 67 66m-226 131c-2 2-6 5-11 7-3 1-7 3-10 2-3-1-6-6-6-9-2-16-6-19-25-19-15 0-19 4-21 19 0 4-3 8-7 9-2 1-7 0-9-2-12-9-18-9-29 2-13 12-13 18-4 30 2 2 4 8 3 11-2 2-6 5-10 5-15 2-19 7-18 25 0 15 4 19 19 21 3 0 7 3 8 5 1 4 1 9-2 12-9 12-9 17 4 30 11 11 17 11 29 1 2-1 8-3 10-1 3 1 6 6 6 9 2 14 6 18 20 19 19 0 24-4 26-18 0-4 3-9 6-10 3-2 8 1 11 3 10 7 16 7 25 0 2-3 4-5 6-7 9-9 9-16 1-26-2-3-4-8-3-11 2-3 7-6 10-6 13-1 17-6 18-18 0-2 0-4 0-6 0-16-4-20-19-22-4 0-8-3-9-6-1-2 0-7 2-10 5-6 9-11 6-19-3-8-17-20-27-20m-21 78c0 16-13 30-29 30-16 0-30-13-30-29 0-17 13-30 30-30 16 0 29 13 29 29"/>
<glyph unicode="&#107;" d="M333 219c-30 53-59 105-76 162-18 59 22 103 60 117 58 22 124-6 142-62 8-22 7-43-4-65-19-38-47-69-75-101-15-17-31-33-47-51m68 198c0 22-18 39-41 39-23 0-42-18-42-38 0-21 20-39 42-39 22 0 41 17 41 38m94-410c-129 10-256 21-385 32 7 22 13 44 19 65 3 0 6 1 8 0 72-5 144-10 215-15 41-2 82-5 123-8 8 0 12-2 13-12 1-20 4-40 7-62m-270 109c7 40 14 78 21 117 18-1 35-1 52-3 2 0 5-3 6-6 8-12 15-25 21-36 11 10 23 20 33 31 7 8 15 10 25 7l0-120c-52 3-104 7-158 10m-24 2c-23 1-45 3-67 4 6 22 12 42 17 63 10 33 19 66 28 99 2 7 5 9 11 8 15-1 30-1 46-2-12-58-23-115-35-172m-184-72c18 47 35 91 52 137 21-2 41-3 62-4-11-34-21-66-30-99-4-11-7-22-11-33-1-2-4-6-6-6-22 1-44 3-67 5m149 248c-11-34-20-66-30-97-1-2-4-4-5-4-19 1-37 2-57 3 5 12 9 23 14 34 7 19 14 38 21 58 2 4 3 7 9 6 15 0 30 0 48 0m243-137c22-2 43-3 64-4 2 0 5-3 5-5 2-17 4-33 6-50-11 0-20 0-29 1-13 1-26 2-39 3-2 0-6 3-6 5-1 16-1 32-1 50m67 12c-22 1-42 2-62 3-3 0-7 5-7 7 0 15 0 29 0 45 20 0 41-1 62-2 3-18 5-35 7-53m-8 68c-29 2-58 3-88 4 11 14 22 27 32 40 2 1 4 2 7 1 12 0 25 0 38-1 2 0 6-4 6-6 2-12 3-25 5-38m-175 8c-16 1-30 1-45 2 2 14 5 27 7 40 17 3 17 3 23-11 5-10 10-20 15-31"/>
<glyph unicode="&#108;" d="M5 199c2 5 3 11 4 16 3 9 8 17 14 24 0 1 1 2 1 3-7 3-9 8-6 16 3 11 10 18 19 22 12 7 21 10 45 11 1 3 2 7 2 10 2 6 6 9 12 10 7 0 14-1 21-2 8-1 16-2 25-3 13-1 26-2 40-3 5 0 10-4 11-9 33 39 73 60 124 61-12 1-24 3-36 5-5 1-10 2-15 4-6 2-8 10-6 16 2 6 9 9 15 7 15-4 30-9 45-14 4-2 6-2 9 1 7 5 14 9 23 10 11 0 22 2 33 1 9 0 11-4 12-13 0-12 0-24 0-35 0-10-5-14-15-14l-20 0c11-19 22-38 33-57 45 15 89-8 105-45 18-43 1-90-42-110-38-18-84-6-107 32-23 39-11 83 16 107-9 15-18 30-27 46-1-7-3-13-4-19-3-15-5-30-8-44-2-11-4-21-7-32-5-19-19-32-39-34-16-1-33-1-50-1-11 0-21 0-31 0-9 1-17 3-26 5-2 0-4 0-5-3-4-17-12-32-26-44-12-10-25-17-41-20-19-2-37-1-53 8-22 12-37 30-43 55-1 2-1 5-2 8z m408 38c1-2 2-5 3-7 7-12 15-25 22-38 3-6-1-15-6-19-8-4-17-2-22 4-4 8-9 15-13 23-4 6-9 13-13 20-14-13-18-40-5-60 15-24 45-31 68-19 25 14 33 40 23 65-10 25-37 37-57 31m-275-66c-17 0-33 0-50 0-12 0-19 13-14 23 4 5 7 9 11 14 5 7 11 14 18 22-7 2-13 4-19 5-3 1-6 2-8 2-12-3-20-9-28-18-10-13-12-27-10-42 2-14 10-25 22-33 12-8 25-10 39-7 10 1 18 6 25 13 6 5 11 12 14 21m-8 41c-2-3-4-5-7-8l15 0c-3 3-6 5-8 8"/>
<glyph unicode="&#109;" d="M501 77l-129 339-91 0 0-47-58 0 0 47-98 0-116-339 200 0 0 88 84 0 0-88z m-215 154l-74 0 0 89 74 0z"/>
<glyph unicode="&#110;" d="M327 257l176 0c-5-77-38-139-99-186-80-60-184-64-262-22-83 44-127 115-136 208l5 0c52 0 104 0 157 0 3 0 4 0 5-4 5-22 18-38 37-50 32-19 73-12 98 16 9 10 15 22 18 35 0 1 0 2 1 3m-49-124c0 6-1 12-2 17-4 12-11 20-23 22-12 2-23-2-30-13-10-16-10-34-1-51 9-19 38-19 48-4 6 9 8 18 8 29m65 0c0 8-1 16-4 23-5 9-12 15-22 16-11 1-21-2-27-11-12-17-11-35-3-53 5-11 15-15 27-15 11 1 20 6 25 17 3 7 4 15 4 23m-138 38c-9-1-18 3-26-6-3-4-8-6-12-9 1-3 3-7 4-11 4 1 7 3 11 5l0-41-10 0 0-14 43 0 0 14-10 0z m36-95c-3 2-6 3-8 0-3 0-5 1-8 1 0 0 0-1 0-1 3-5 2-10 0-15l10 0c0 1 0 3 0 3-3 1-2 4-2 6 0 1 1 2 2 3 0-1 1-2 1-3 0-3 0-6 0-9l8 0c0 1 0 2 0 3-1 2-1 4-2 6 0 1 1 2 2 3 0-1 1-2 2-3 0-3 0-6 0-9l8 0c0 1 0 2 0 2-3 3-2 7-2 10-1 3-3 5-6 4-2 0-3-1-5-1m45 9l0-24 10 0c0 1 0 3-1 3-3 1-2 4-2 6 0 1 2 2 3 3 0-1 1-2 1-3 1-3 0-6 0-9l9 0c-1 5-1 9-3 14 0 3-3 3-6 2-1 0-2-1-4-2l0 10z m-73-24c-1 2-1 5-2 7 6-1 1-5 3-7l9 0c1 5-5 6-5 11 1 0 2 1 4 1 0 1 0 3 0 4l-9 0c0-2 0-4 1-5-1 0-2-1-3-1l0 14c-2 0-3 0-5 0-2 0-3-1-2-3 3-5 1-11 1-16 0-2-1-3-1-5l9 0z m48-5c4-1 6 0 7 3 1 4 2 8 4 12 1 5 2 9 4 14l-5 0c-3-10-6-20-10-29m222 213c-2 75-31 136-90 182m2-36c-4-5-8-10-12-15-19-24-39-48-58-72-18-23-37-45-55-68-3-4-6-8-10-11-11-7-25-3-32 7-6 10-4 23 6 31 32 26 63 51 95 76 20 17 40 33 60 49 2 1 3 2 5 3 0 0 0 0 1 0m-206-146c-6 0-12 0-17 0-2 0-2 1-2 3 0 12 3 25 9 36 9 15 21 27 37 34 21 10 43 10 65 1 0 0 0 0 1-1-4-3-8-6-11-9-4-3-8-4-13-3-33 6-65-19-69-52 0-3 0-6 0-9m59 169c0 12 0 25 0 38m-155-193c12 0 24 0 35 0m-33 66c16-6 32-13 48-20m304 23c0-3-2-5-5-6-13-6-26-11-40-17-10-4-20-8-30-12-5-2-10 0-11 6 0 3 2 5 5 6 17 7 34 14 51 21 6 3 13 6 20 9 5 2 10-1 10-7m-232 38c0-4-3-7-6-8-3 0-6 1-8 5-4 10-8 20-12 30-6 13-11 26-17 39-1 3-2 6 1 9 3 5 9 4 12-2 5-13 11-27 17-41 4-10 8-20 12-29 0-2 1-3 1-3m81 3c10 23 19 47 29 70m-149-101c-2-2-3-4-5-6-3-1-6 0-8 2-5 5-10 10-15 14-12 13-25 26-37 38-1 1-2 2-3 3-3 3-3 7 0 10 3 2 7 2 10-1 8-8 16-16 24-24 10-10 20-20 30-30 2-2 3-4 4-6m241-79l38 0c3 0 5-1 7-4 1-3 1-5-1-7-2-2-4-3-6-3-26 0-51 0-76 0-5 0-8 3-8 7 0 4 3 7 8 7 12 0 25 0 38 0z m-88-14l-18 0c-1 5-2 11-3 16 0 0 0 1 1 2 4 5 8 10 13 16 5-11 7-22 7-34"/>
<glyph unicode="&#110;" d="M327 243l174 0c-6-76-38-137-98-183-79-60-181-63-258-22-82 43-125 113-134 205l5 0c51 0 103 0 154 0 3 0 5-1 5-4 6-22 18-38 37-49 31-19 72-12 96 15 9 10 15 22 18 35 0 1 0 2 1 3m-48-123c-1 6-1 12-3 18-3 11-10 19-22 21-12 2-23-2-29-13-10-16-10-33-2-50 10-19 38-19 48-4 6 9 8 18 8 28m64 0c0 8-1 16-4 23-5 9-12 15-21 16-12 1-21-2-28-11-11-17-10-34-2-52 5-10 15-15 26-14 11 0 20 5 25 16 3 7 4 14 4 22m-136 38c-9-1-18 3-25-6-3-4-8-6-13-9 2-3 3-7 5-11 3 2 7 3 10 5l0-40-10 0 0-14 42 0 0 14-9 0z m35-94c-2 2-5 3-7 1-3 0-6 0-8 0 0 0-1 0-1 0 3-5 2-10 1-16l9 0c0 2 1 3 0 4-2 1-2 3-2 5 1 1 2 2 2 3 1-1 1-2 1-3 1-3 0-6 0-9l9 0c0 2-1 3-1 4 0 2-1 4-1 6 0 0 1 1 1 2 1-1 2-2 2-2 0-3 0-6 0-10l8 0c0 1 0 2 0 3-3 3-1 6-2 9 0 3-3 5-6 5-1 0-3-1-5-2m45 9l0-24 9 0c0 2 0 4 0 4-3 1-2 3-2 5 0 1 1 2 2 3 1-1 2-2 2-3 0-3 0-6 0-9l8 0c-1 5-1 10-2 14-1 3-4 3-6 3-2-1-2-1-4-2l0 9-7 0z m-72-24c-1 3-1 5-2 8 5-2 1-6 3-8l9 0c1 5-5 7-5 11 1 1 2 1 4 2 0 1 0 2-1 3l-8 0c0-2 0-3 1-5-1 0-2 0-3-1l0 15c-2 0-3 0-5 0-3 0-3-2-2-4 3-5 1-10 1-15 0-2-1-4-1-6z m48-5c3-1 5 1 6 4 1 4 2 8 4 12 1 4 2 8 4 13l-5 0c-3-10-6-19-9-29m1 457c3 0 7-1 10-1 31-2 61-10 89-24 25-12 48-28 67-48 26-26 45-56 57-90 8-24 13-48 14-72 0-4 0-8 0-11l-20 0c-2 73-31 134-89 179-42 32-89 48-142 46-61-2-113-25-155-68-42-44-63-97-64-157l-19 0c-1 1-1 2-1 3 1 34 7 66 21 96 14 34 36 62 63 86 32 29 70 47 112 56 13 2 26 3 39 4 1 1 2 1 3 1 5 0 10 0 15 0m130-103c-4-5-8-10-12-15-19-23-38-47-57-70-18-23-36-45-54-67-3-4-6-8-10-11-11-7-24-3-31 7-6 10-4 23 6 31 31 25 62 50 93 75 20 16 40 31 59 47 2 2 4 3 5 4 0 0 1-1 1-1m-203-143c-6 0-11 0-16-1-2 0-3 2-3 3 1 13 4 25 10 36 8 15 20 27 36 34 21 9 42 9 64 1 0 0 0-1 0-1-3-3-7-6-11-9-3-4-7-4-12-3-32 5-64-19-68-51 0-3 0-6 0-9m58 166c0 12 0 25 0 37 0 4 2 7 5 7 4 1 6 0 8-3 1-1 1-2 1-4 0-25 0-50 0-75 0-5-3-8-7-8-4 1-7 3-7 8 0 13 0 25 0 38m-152-153c11 0 23 0 35 0 1 0 3 0 5 0 3-1 5-4 5-7 0-3-2-6-5-6-1 0-2-1-3-1-25 0-50 0-74 1-2 0-5 1-7 2-1 2-1 5-1 7 1 3 4 4 7 4 8 0 16 0 24 0l14 0 0 0z m54 40c0-6-5-9-10-7-7 3-14 6-21 9-16 7-32 13-47 20-2 1-4 2-5 3-2 3-2 6 0 8 2 3 5 3 8 2 8-3 15-6 23-9 16-7 31-13 47-20 3-1 5-3 5-6m294 28c0-3-1-4-4-6-13-5-26-11-40-16-10-4-20-8-30-12-5-3-10 0-10 5 0 3 1 6 4 7 17 7 34 14 50 21 7 2 14 5 21 8 5 2 9-1 9-7m-228 37c0-3-3-6-6-7-3 0-6 1-7 4-5 10-9 20-13 30-5 13-11 26-16 39-1 3-2 6 0 9 3 4 10 3 12-2 6-14 11-27 17-41 4-9 8-19 12-29 0-1 0-2 1-3m122 70c-2-3-3-7-5-10-8-21-16-41-25-62-2-4-5-6-9-4-4 1-5 5-3 10 9 23 19 46 28 69 2 4 5 5 8 4 3 0 5-3 6-7m-161-97c-2-2-3-4-5-5-2-2-5-1-8 1-4 5-9 10-14 14-12 13-24 25-37 37-1 1-2 2-3 3-2 3-2 7 1 10 2 2 7 2 10-1 7-7 15-15 23-23 10-10 20-20 30-30 1-1 2-4 3-6m238-78l37 0c3 0 5-1 7-4 1-2 1-5-1-7-2-1-4-2-6-2-25-1-50-1-75-1-5 0-8 3-8 7 0 4 3 7 8 7 13 0 25 0 38 0z m-87-13l-18 0c-1 5-2 10-3 15 0 1 1 1 1 2 4 5 8 10 13 16 5-11 7-22 7-33"/>
<glyph unicode="&#111;" d="M256 464c115 0 208-93 208-208 0-115-93-208-208-208-115 0-208 93-208 208 0 115 93 208 208 208z m0-399c59 0 111 27 146 69-20 8-66 24-93 32-2 1-3 1-3 11 0 8 4 16 7 23 4 8 7 21 9 32 4 5 10 14 14 32 3 16 2 22 0 28 0 0-1 1-1 2-1 4 0 23 3 38 2 10-1 34-15 52-9 12-26 26-58 28l-18 0c-31-2-49-16-58-28-14-18-17-42-15-52 3-15 4-34 3-38l0-2c-2-6-4-12-1-28 4-18 10-28 14-33 2-11 5-23 9-31 3-6 4-13 4-24 0-10-1-9-3-10-28-8-72-24-90-32 35-42 87-69 146-69z"/>
<glyph unicode="&#112;" d="M448 64l-384 0c0 0 0 26 2 40 2 11 17 25 81 49 63 23 60 12 60 55 0 28-14 11-23 64-4 21-6 7-14 40-4 17 3 19 2 27-1 8-2 16-4 33-2 21 18 76 88 76 70 0 90-55 88-76-2-17-3-25-4-33-1-8 6-10 2-27-8-33-10-19-14-40-9-53-23-36-23-64 0-43-3-32 60-55 64-24 79-38 81-49 2-14 2-40 2-40z"/>
<glyph unicode="&#113;" d="M363 148c13-5 53-20 53-52l-320 0c0 32 40 47 53 52 13 5 31 6 43 9 7 2 17 5 20 9 3 4 1 41 1 41 0 0-6 10-9 18-3 8-7 32-7 32 0 0-7 0-9 12-2 13-6 17-6 27 0 9 5 10 5 10 0 0-4 13-5 42-1 34 25 68 74 68 49 0 75-34 74-68-1-29-5-42-5-42 0 0 5-1 5-10 0-10-3-15-6-28-2-12-9-12-9-12 0 0-4-23-7-31-3-8-9-18-9-18 0 0-2-37 1-41 3-4 13-7 20-9 12-3 30-4 43-9z"/>
<glyph unicode="&#114;" d="M392 142c70-24 105-45 105-62 0 0 0-54 0-54 0 0-241 0-241 0 0 0-241 0-241 0 0 0 0 54 0 54 0 17 35 38 105 62 32 12 54 24 65 36 12 12 18 28 18 48 0 8-4 16-12 25-7 10-12 22-16 38-1 4-2 7-5 9-2 2-4 3-7 4-2 1-4 4-7 9-2 5-4 12-4 22 0 5 0 10 2 13 2 4 3 6 5 6 0 0 2 2 2 2-3 17-5 32-6 45-2 19 5 38 21 58 15 19 42 29 80 29 38 0 65-10 81-29 16-20 22-39 20-58 0 0-6-45-6-45 6-2 9-10 9-21 0-10-2-17-4-22-3-5-5-8-7-9-3-1-5-2-7-4-3-2-4-5-5-9-3-17-8-29-16-38-8-9-12-17-12-25 0-20 6-36 18-48 12-12 34-24 65-36"/>
<glyph unicode="&#115;" d="M479 85c-19 19-93 38-130 57-25 13-38 40-38 63 0 12 8 22 16 31 6 7 11 17 15 29 10 4 22 13 22 36 0 14-2 23-7 29 2 13 3 26 4 39 0 4 0 7 0 10-2 113-118 109-135 101-15-8-21-25-21-28 0 0 0 0-1 0-10 5-33-1-46-24-13-24-8-59-8-59 1-13 3-27 5-39-5-6-7-15-7-29 0-23 12-32 22-37 4-12 9-22 15-28 7-9 15-19 15-31 0-24-12-51-37-63-37-19-112-38-130-57-19-19-19-57-19-57l484 0c-1 1-1 38-19 57z"/>
</font>
</defs>
</svg>
